<?xml version="1.0" standalone="no"?><!DOCTYPE svg PUBLIC "-//W3C//DTD SVG 1.1//EN" "http://www.w3.org/Graphics/SVG/1.1/DTD/svg11.dtd"><svg t="1623030654914" class="icon" viewBox="0 0 1024 1024" version="1.1" xmlns="http://www.w3.org/2000/svg" p-id="2368" xmlns:xlink="http://www.w3.org/1999/xlink" width="200" height="200"><defs><style type="text/css"></style></defs><path d="M426 817.7H144.4c-22.7 0-41.2-18.5-41.2-41.1V108.5c0-22.7 18.5-41.2 41.2-41.2h308.1v81.5c0 48.3 39.6 87.9 87.9 87.9h92.8c0.2 1.3 0.7 2.5 0.7 3.9v272.9c7.6 6.4 15.2 12.6 22.8 20.3 1 1.1 2.1 2.2 3.1 3.3 4.7-2.4 9.5-4.6 14.4-6.3 9.1-3.2 18.1-4.9 27-5.8V240.6c0-2-0.4-3.9-0.5-5.8-1.3-23.3-10.2-45.5-26-62.9L549.3 33.5C530 12.2 502.3 0 473.6 0H144.5C84.6 0 36 48.7 36 108.5v668.1c0 59.8 48.7 108.5 108.5 108.5h281.7c-6.4-21.6-6.8-44.8-0.2-67.4z" p-id="2369"></path><path d="M189.3 391.6h243.1c20.7 0 37.6-16.9 37.6-37.6 0-20.7-16.9-37.6-37.6-37.6H189.3c-20.7 0-37.6 16.9-37.6 37.6 0 20.7 16.9 37.6 37.6 37.6zM443.6 514.9c12.1-18.8 30.3-33.2 51.6-41.2H189.3c-20.7 0-37.6 16.9-37.6 37.6s16.9 37.6 37.6 37.6h237.8c0.4-1.3 0.4-2.6 0.8-3.9 3.6-10.8 8.9-20.9 15.7-30.1zM483.9 679.6c-13.6-9.2-29.4-20-42.3-39.2-2-3-3.2-6.3-4.9-9.4H189.3c-20.7 0-37.6 16.9-37.6 37.6 0 20.7 16.9 37.6 37.6 37.6h321.9c-9.2-14.1-17.1-19.8-27.3-26.6z" p-id="2370"></path><path d="M928.4 620.4c-7.2-19.8-26.9-33.1-49.1-33.1-6.3 0-12.4 1.1-18.1 3.2-3.8 1.4-7.9 3.5-11.7 6.1C839.1 579 820 568 799.1 568c-6.6 0-13.4 1.2-20.2 3.6-10.6 3.8-19.8 10.6-26.7 19.6-10.8-10.3-25.1-16-40.2-16-6.6 0-13.4 1.2-20.2 3.6-14.9 5.4-28 16-35.7 28.4-1.1 1.4-2.1 2.8-3 4.2-12.4-18.3-23.1-31.9-32.7-41.5-23.5-23.6-58.2-51.6-90.1-51.6-5.7 0-11.2 1-16.6 2.9-11.9 4.3-21.9 12.6-28 22.9-4.1 5.1-7.2 10.8-9.2 17-5.6 16.9-2.9 35.3 7.4 50.6 7.5 11.1 17.4 17.8 28.2 25.1 14.4 9.5 30.6 20.3 47.8 50.4 13.4 23.3 31 63.5 51.1 116.6l-39.2-19.4c-9.1-4.2-18.8-6.4-28.7-6.4-23.3 0-45.3 12.4-57.3 32-3 3.9-5.5 8.1-7.7 12.6-15.7 34-1.3 74.5 34 91 10.3 5.4 59.3 31.1 124.6 61.6l12 5.6c47.1 22.2 91.7 43.1 144.4 43.1 25.1 0 50.1-4.7 76.4-14.3 41-14.9 69.8-35.6 87.7-63.1 21.7-29.4 27-62.7 30.4-91.5 6.3-55.5-58.5-232.8-59.2-234.6zM520 831.3c2.5-5.7 6.4-10.4 10-13.1 3.2-0.9 6.4-1.4 9.6-1.4 5.2 0 10.2 1.2 14.5 3.4l83 40.9c2.3 1.1 4.8 1.7 7.4 1.7 4.1 0 8-1.5 10.8-4 2-1.6 3.5-3.7 2.2-3.7 0 0-0.2 0.1-0.3 0.1l4.5-2.8c5-4.3 6.9-11.3 3.4-21.2-25.8-73-49.7-130.2-67.3-161.1-20.2-35.5-41-49.5-56.3-59.8-8-5.4-14.2-9.6-18.1-15.4-4.4-6.7-5.6-14.3-3.4-20.9 2.1-6.2 6.7-10.9 12.9-13.2l6.4-1c15.2 5.6 34.5 19.6 54.4 39.4 26 26 58.7 85.6 65.2 97.6 2.8 5.6 8.4 9.1 14.7 9.1l5.4-1.4 1-0.5 5-1 1-0.5c7.8-3.6 11.5-12.4 8.6-20.5l-10.1-27.9c-7.1-19.5 8.3-33.1 20.3-37.5 2.4-0.9 4.8-1.4 9.3-1.4 0.8 0 1.5 0.1 2.4 0.1 7.5 2.5 13.6 8.3 16.3 15.6l14.4 39.5c2.3 6.5 8.6 10.9 15.6 10.9 2 0 3.9-0.4 8-1.8 8.2-3.1 12.6-12.4 9.6-20.9l-6.3-17.5c-2.2-6.3-2-13 0.8-18.8 2.8-5.9 7.7-10.4 13.8-12.6 2.7-1 5.5-1.6 8.2-1.6 10.3 0 19.5 6.5 23 16.2l16.4 45.2c0.8 2.4 2.2 4.6 4.2 6.5 3.1 3.2 7.5 5 11.9 5l5.6-1c4.1-1.5 7.4-4.5 9.3-8.4 1.9-4 2.2-8.7 0.7-12.9l-9-24.7c1.9-1.6 4.6-3.5 8.8-6.1 1.9-0.7 4.1-1.1 6.4-1.1 7.7 0 14.9 4.6 17.1 10.8 19.8 54.3 59.5 177.9 55.4 213.1-5.7 50.4-15.9 91-89.3 118-22 8-42.5 11.9-62.8 11.9-43.2 0-81.3-18-125.6-38.9l-11.6-5.4c-70.5-33-120.6-60.1-121.3-60.5-8.1-3.8-14.2-10.4-17.2-18.9-3.2-8.2-2.8-17.4 1.1-25.6z" p-id="2371"></path></svg>