<?xml version="1.0" standalone="no"?><!DOCTYPE svg PUBLIC "-//W3C//DTD SVG 1.1//EN" "http://www.w3.org/Graphics/SVG/1.1/DTD/svg11.dtd"><svg t="1619528194420" class="icon" viewBox="0 0 1024 1024" version="1.1" xmlns="http://www.w3.org/2000/svg" p-id="2165" xmlns:xlink="http://www.w3.org/1999/xlink" width="200" height="200"><defs><style type="text/css"></style></defs><path d="M566.55497187 51.95428531a77.02857187 77.02857187 0 0 0-103.47428625 0L44.68068594 449.16571437a38.5828575 38.5828575 0 0 0 51.67999969 57.32571375l6.65142843-6.33142781V914.74285719A77.16571406 77.16571406 0 0 0 180.2235425 992h224.64V759.65714281a54.33142875 54.33142875 0 0 1 54.37714313-54.40000031h105.69142875a54.35428594 54.35428594 0 0 1 54.40000031 54.40000031V992h229.94285719a77.23428563 77.23428563 0 0 0 77.23428562-77.25714281V505.21142844c17.14285687 15.52000031 41.4628575 14.33142844 55.74857063-1.55428594a38.5828575 38.5828575 0 0 0-2.78857125-54.51428531L566.55497187 51.9771425z" fill="#CCCCCC" p-id="2166"></path></svg>