<?xml version="1.0" standalone="no"?><!DOCTYPE svg PUBLIC "-//W3C//DTD SVG 1.1//EN" "http://www.w3.org/Graphics/SVG/1.1/DTD/svg11.dtd"><svg t="1622981899774" class="icon" viewBox="0 0 1024 1024" version="1.1" xmlns="http://www.w3.org/2000/svg" p-id="1849" xmlns:xlink="http://www.w3.org/1999/xlink" width="200" height="200"><defs><style type="text/css"></style></defs><path d="M405.333333 341.333333a64 64 0 1 1-64 64 64 64 0 0 1 64-64m0-42.666666a106.666667 106.666667 0 1 0 106.666667 106.666666 106.666667 106.666667 0 0 0-106.666667-106.666666zM618.666667 554.666667a64 64 0 1 1-64 64 64 64 0 0 1 64-64m0-42.666667a106.666667 106.666667 0 1 0 106.666666 106.666667 106.666667 106.666667 0 0 0-106.666666-106.666667z" p-id="1850"></path><path d="M509.866667 384a106.666667 106.666667 0 0 1 0 42.666667H853.333333v426.666666H426.666667V509.866667a106.666667 106.666667 0 0 1-42.666667 0V896h512V384z" p-id="1851"></path><path d="M512 618.666667a116.693333 116.693333 0 0 1 2.133333-21.333334H170.666667V170.666667h426.666666v343.466666a107.733333 107.733333 0 0 1 42.666667 0V128H128v512h386.133333a116.693333 116.693333 0 0 1-2.133333-21.333333z" p-id="1852"></path></svg>