<?xml version="1.0" standalone="no"?><!DOCTYPE svg PUBLIC "-//W3C//DTD SVG 1.1//EN" "http://www.w3.org/Graphics/SVG/1.1/DTD/svg11.dtd"><svg t="1635044376932" class="icon" viewBox="0 0 1024 1024" version="1.1" xmlns="http://www.w3.org/2000/svg" p-id="2477" xmlns:xlink="http://www.w3.org/1999/xlink" width="200" height="200"><defs><style type="text/css"></style></defs><path d="M1015.808 331.776l-61.44-56.32c-14.336-14.336-42.496-14.336-66.048 4.608l-434.688 430.592c-18.944 18.432-23.552 46.592-4.608 65.536l56.832 56.32c14.336 14.336 42.496 14.336 66.048-4.608l434.688-430.592c18.432-18.944 23.04-47.104 9.216-65.536zM552.96 888.832l-179.712 98.304h368.64c26.112 0 47.104-20.992 47.104-46.592v-276.48l-221.696 220.16c-5.12 0-9.728 0-14.336 4.608z" p-id="2478"></path><path d="M401.408 781.312L307.2 991.744l207.872-102.912z" p-id="2479"></path><path d="M741.888 32.256H47.104c-25.6-0.512-47.104 20.48-47.104 46.592v857.088c0 28.16 23.552 46.592 47.104 46.592h245.76l99.328-229.376c4.608-9.216 9.728-18.944 18.944-28.16l377.856-374.784v-271.36c0-26.112-21.504-47.104-47.104-46.592zM312.32 481.28H117.76c-16.896 0-30.72-13.824-30.72-30.72s13.824-30.72 30.72-30.72h194.56c16.896 0 30.72 13.824 30.72 30.72s-13.824 30.72-30.72 30.72z m358.4-133.12H117.76c-16.896 0-30.72-13.824-30.72-30.72s13.824-30.72 30.72-30.72h552.96c16.896 0 30.72 13.824 30.72 30.72s-13.824 30.72-30.72 30.72z m0-133.12H117.76c-16.896 0-30.72-13.824-30.72-30.72s13.824-30.72 30.72-30.72h552.96c16.896 0 30.72 13.824 30.72 30.72s-13.824 30.72-30.72 30.72z" p-id="2480"></path></svg>