<svg t="1626339591150" class="icon" viewBox="0 0 1024 1024" version="1.1" xmlns="http://www.w3.org/2000/svg" p-id="1467" width="200" height="200"><path d="M128 128h768c35.348 0 64 28.652 64 64v640c0 35.348-28.652 64-64 64H128c-35.348 0-64-28.652-64-64V192c0-35.348 28.652-64 64-64z m751.788 285.652a61.228 61.228 0 0 0-88.108-8.32L517.12 237.44a68.908 68.908 0 0 0-14.72-33.492 61.228 61.228 0 0 0-88.108-8.32 62.292 62.292 0 0 0-21.332 39.892l-149.332 88.108a60.16 60.16 0 0 0-58.668-12.588 61.44 61.44 0 0 0-42.668 77.652 60.16 60.16 0 0 0 52.48 43.948L230.4 589.868a64 64 0 0 0-27.732 52.264A61.868 61.868 0 0 0 265.388 704a66.132 66.132 0 0 0 39.892-14.72l149.332 88.108c0 4.264-2.132 8.32-2.132 12.584 0 34.76 28.176 62.936 62.932 62.936 34.76 0 62.936-28.176 62.936-62.936a66.995 66.995 0 0 0-6.188-29.44L804.268 512a66.132 66.132 0 0 0 64-8.32 62.08 62.08 0 0 0 10.452-90.24l1.068 0.212z m-109.016 75.52l-228.48 243.2a49.28 49.28 0 0 0-16.852-4.264L491.948 570.88a83.2 83.2 0 0 0 46.08-69.12l232.744-12.588zM477.228 742.828L327.892 654.72c0-4.268 2.136-8.32 2.136-12.588a61.228 61.228 0 0 0-4.268-18.772l77.652-62.932a74.668 74.668 0 0 0 48.216 16.852l33.492 157.228-8.32 8.32h0.428zM273.92 581.332l-35.628-157.224 136.32 58.664c0 4.268-2.132 8.32-2.132 12.588a86.828 86.828 0 0 0 6.188 33.492l-77.656 60.8a59.52 59.52 0 0 0-27.092-8.32zM265.6 359.04l138.452-79.572c2.136 2.132 2.136 4.264 4.268 6.184a79.788 79.788 0 0 0 27.308 18.776v111.144a72.32 72.32 0 0 0-43.948 29.44L265.812 390.4c0.9-10.44 0.76-20.948-0.424-31.36h0.212z m241.068-79.572L770.772 440.96V448L531.84 462.72a85.332 85.332 0 0 0-54.612-46.08v-112A85.332 85.332 0 0 0 496 294.188a37.548 37.548 0 0 0 10.668-14.72z" fill="#868686" p-id="1468"></path></svg>