<?xml version="1.0" standalone="no"?><!DOCTYPE svg PUBLIC "-//W3C//DTD SVG 1.1//EN" "http://www.w3.org/Graphics/SVG/1.1/DTD/svg11.dtd"><svg t="1626337111804" class="icon" viewBox="0 0 1024 1024" version="1.1" xmlns="http://www.w3.org/2000/svg" p-id="1210" xmlns:xlink="http://www.w3.org/1999/xlink" width="200" height="200"><defs><style type="text/css"></style></defs><path d="M136.533 382.976c0-105.199 37.41-194.97 111.719-270.268C322.56 37.41 412.809 0 518.554 0c105.71 0 195.96 37.41 271.291 112.708 75.298 75.298 112.709 165.07 112.709 270.302 0 14.473-0.512 29.423-2.014 43.896-2.492 2.491-1.98 7.475-1.98 9.967l-5.973 35.908c-2.526 0-2.014 3.481-2.014 5.973-3.994 13.483-7.987 25.43-11.947 35.908v2.014l-2.014 1.98c-5.461 14.473-10.479 27.443-15.974 37.888 0 1.502-0.478 2.014-1.98 2.014-6.485 13.448-13.995 25.941-21.948 37.888-7.987 11.98-16.452 23.961-25.94 35.908l-0.99 1.024-1.025 0.956c-7.953 9.489-17.408 18.466-27.887 27.99 0 0-1.024 0.477-3.003 1.945-4.984 3.481-5.462 6.485-10.991 11.98-2.492 0-5.974 1.502-5.974 3.994l-18.944 14.95-3.993 2.97-3.004 2.048c-11.947 9.455-20.446 19.934-25.941 31.88-5.462 11.947-10.445 20.48-15.94 25.942-5.462 5.461-15.463 7.987-29.901 7.987H375.91c-14.472 0-24.44-2.526-29.935-7.987-5.46-5.461-10.956-13.995-16.964-25.941a108.885 108.885 0 0 0-24.917-31.915c-1.502 0-2.492-0.478-3.994-2.014l-3.003-2.97-18.944-14.95-5.974-3.993-7.987-7.953s-1.98-2.048-5.973-6.008l-27.956-27.955-0.99-0.956-0.99-1.024c-18.431-23.927-34.406-47.377-47.854-73.796-1.502 0-2.048-0.512-2.048-2.014-5.462-10.445-10.445-23.415-15.906-37.888-1.502 0-2.014-0.512-2.014-1.98v-2.014a509.781 509.781 0 0 1-11.947-35.908s-0.512-1.024-1.024-2.97l-1.024-3.003a299.69 299.69 0 0 1-5.94-35.908c0-2.492-2.013-7.51-2.013-9.967a434.893 434.893 0 0 1-1.98-43.93zM361.95 829.85h319.147c18.466 0 31.948 13.448 31.948 31.914 0 18.432-13.482 31.915-31.914 31.915H361.95a30.925 30.925 0 0 1-31.915-31.915c0-18.432 13.449-31.914 31.915-31.914z m13.96 127.658h289.246l-117.691 59.836a72.738 72.738 0 0 1-57.856 0L375.91 957.508z m177.528-766.02c38.434 0 74.82 15.462 108.749 46.9 33.894 31.402 50.858 70.314 50.858 116.701 0 15.94 13.449 31.915 31.915 31.915 18.432 0 31.915-15.975 31.915-31.915 0-69.325-22.426-124.177-67.823-165.547-45.398-41.437-97.28-61.883-155.614-61.883a30.925 30.925 0 0 0-31.915 31.914c0 18.432 13.483 31.915 31.915 31.915z" p-id="1211"></path></svg>